<?xml version="1.0" standalone="no"?>
<!DOCTYPE svg PUBLIC "-//W3C//DTD SVG 20010904//EN"
 "http://www.w3.org/TR/2001/REC-SVG-20010904/DTD/svg10.dtd">
<svg version="1.0" xmlns="http://www.w3.org/2000/svg"
 width="700.000000pt" height="700.000000pt" viewBox="0 0 700.000000 700.000000"
 preserveAspectRatio="xMidYMid meet">
<metadata>
Created by potrace 1.11, written by Peter Selinger 2001-2013
</metadata>
<g transform="translate(0.000000,700.000000) scale(0.100000,-0.100000)"
fill="#000000" stroke="none">
<path d="M3220 6994 c-19 -2 -78 -9 -130 -14 -938 -105 -1815 -609 -2390
-1375 -368 -490 -587 -1025 -677 -1656 -25 -178 -25 -721 0 -894 70 -477 207
-892 422 -1270 403 -712 1022 -1249 1783 -1550 247 -97 525 -168 823 -210 176
-25 606 -31 797 -11 620 66 1156 266 1669 623 315 219 627 530 846 846 335
481 525 967 614 1572 25 172 25 717 0 890 -100 688 -341 1245 -766 1775 -101
126 -371 396 -497 496 -527 422 -1089 664 -1759 760 -104 15 -646 28 -735 18z
m-169 -430 l199 -106 -2 -2957 -3 -2956 -232 -3 -233 -2 0 1365 0 1365 -498 0
-498 0 -269 -587 c-147 -324 -270 -590 -271 -591 -1 -2 -92 44 -202 104 l-200
107 42 91 c23 50 474 1033 1001 2184 528 1150 961 2092 963 2092 2 0 94 -48
203 -106z m1606 -1015 c276 -613 503 -1116 503 -1119 0 -6 -393 -220 -396
-217 -2 2 -416 918 -535 1182 -17 39 -18 16 -18 -827 l-1 -868 420 0 420 0 -2
-212 -3 -213 -417 -3 -418 -2 0 -1365 0 -1365 -230 0 -230 0 0 2959 0 2960
133 72 c72 39 159 86 192 104 33 19 64 32 69 31 5 -1 236 -504 513 -1117z"/>
<path d="M2379 4568 l-395 -863 394 -3 c217 -1 397 -1 399 1 2 2 2 392 1 866
l-3 862 -396 -863z"/>
</g>
</svg>
