<?xml version="1.0" encoding="utf-8"?>
<!-- Generator: Adobe Illustrator 24.0.1, SVG Export Plug-In . SVG Version: 6.00 Build 0)  -->
<svg version="1.1" id="Camada_1" xmlns="http://www.w3.org/2000/svg" xmlns:xlink="http://www.w3.org/1999/xlink" x="0px" y="0px"
	 viewBox="0 0 1074 1298" style="enable-background:new 0 0 1074 1298;" xml:space="preserve">
<style type="text/css">
	.st0{fill:#A5A5A5;}
</style>
<path class="st0" d="M993.07,262.67C857.23,13.66,484.21-9.9,280.44,59.82c-44.14,15.1-121.66,42.79-176.33,118.69
	C38.11,270.14,45.92,375.82,47,388c3.78,42.85,14.18,49.39,70.66,239.51c10.08,33.92,15.2,50.86,15.61,53.51
	C155.24,822.29,25.04,876.84,49,1012c17.18,96.94,109.96,164.93,158,196c173.92,112.49,446.46,102.12,561.67-30.95
	C847.91,1085.54,802.76,1005.49,912,810c51.85-92.79,71.92-79.92,101.92-150.09C1065.15,540.15,1058.24,382.13,993.07,262.67z"/>
<path class="st0" d="M1243,925"/>
<path class="st0" d="M1142,822"/>
<path class="st0" d="M786,1265"/>
<path class="st0" d="M1289,1108"/>
</svg>
